<?xml version="1.0" encoding="UTF-8" standalone="no"?>
<!-- Created with Inkscape (http://www.inkscape.org/) -->

<svg
   width="100.279"
   height="36.523998"
   viewBox="0 0 26.532151 9.6636413"
   version="1.1"
   id="svg1"
   inkscape:version="1.4 (e7c3feb100, 2024-10-09)"
   sodipodi:docname="Isco.svg"
   xml:space="preserve"
   xmlns:inkscape="http://www.inkscape.org/namespaces/inkscape"
   xmlns:sodipodi="http://sodipodi.sourceforge.net/DTD/sodipodi-0.dtd"
   xmlns="http://www.w3.org/2000/svg"
   xmlns:svg="http://www.w3.org/2000/svg"><sodipodi:namedview
     id="namedview1"
     pagecolor="#ffffff"
     bordercolor="#000000"
     borderopacity="0.25"
     inkscape:showpageshadow="2"
     inkscape:pageopacity="0.0"
     inkscape:pagecheckerboard="0"
     inkscape:deskcolor="#d1d1d1"
     inkscape:document-units="mm"
     inkscape:zoom="9.0143465"
     inkscape:cx="53.192985"
     inkscape:cy="17.749484"
     inkscape:window-width="1366"
     inkscape:window-height="761"
     inkscape:window-x="0"
     inkscape:window-y="0"
     inkscape:window-maximized="1"
     inkscape:current-layer="layer1" /><defs
     id="defs1"><clipPath
       clipPathUnits="userSpaceOnUse"
       id="clipPath6"><rect
         style="fill:#000080;stroke-width:0.264583"
         id="rect7"
         width="2.9928668"
         height="1.6477581"
         x="109.52547"
         y="152.29993" /></clipPath></defs><g
     inkscape:label="Capa 1"
     inkscape:groupmode="layer"
     id="layer1"><g
       id="g7"
       transform="translate(-92.899577,-137.2423)"
       inkscape:export-filename="LogoIsco.png"
       inkscape:export-xdpi="96"
       inkscape:export-ydpi="96"><path
         style="fill:#737373;fill-opacity:1;stroke-width:0.264583"
         d="m 93.283287,139.15149 c 16.074053,-5.11141 26.162363,1.95041 26.162363,1.95041 0,0 -10.13424,-5.4319 -24.88451,-1.00883 0.538043,-0.87432 -1.277853,-0.94158 -1.277853,-0.94158 z"
         id="path1"
         sodipodi:nodetypes="cccc" /><rect
         style="fill:#ffffff;stroke-width:0.264583"
         id="rect1"
         width="1.4796195"
         height="5.1114125"
         x="-94.393013"
         y="141.57269"
         transform="scale(-1,1)" /><path
         style="fill:#ffffff;stroke-width:0.264583"
         d="m 101.21943,141.63994 c -1.10972,-0.16814 -2.723846,-0.26902 -3.665424,0.36991 -0.941575,0.63893 -1.076087,1.64776 0.672555,2.15217 1.748642,0.50442 3.060119,1.2106 1.950409,1.78227 -1.109716,0.57167 -3.295516,-0.3699 -3.295516,-0.3699 v 1.00883 c 0,0 2.589334,0.57167 3.699046,0.20176 1.10972,-0.3699 2.45483,-1.71501 0.73981,-2.5557 -1.715013,-0.84069 -3.127377,-0.70618 -3.127377,-1.47962 0,-0.77344 2.824727,-0.47079 3.228257,-0.43716 0.40354,0.0336 0.16814,-0.40354 -0.20176,-0.67256 z"
         id="path2" /><path
         style="fill:#ffffff;stroke-width:0.264583"
         d="m 109.39096,142.27887 -0.0673,-0.67255 c 0,0 -3.32915,-0.43716 -4.47249,0.63892 -1.14334,1.07609 -1.47962,2.7911 0.50442,4.10258 1.98403,1.31149 4.30434,0.10089 4.30434,0.10089 l 0.0336,-0.77344 c 0,0 -1.14334,0.6053 -2.48845,0.3699 -1.34511,-0.23539 -1.88315,-1.00883 -1.88315,-1.98403 0,-0.9752 0.47079,-2.25306 4.06895,-1.78227 z"
         id="path3" /><path
         id="path5"
         style="fill:#ffffff;stroke-width:0.264583"
         d="m 115.07411,141.47715 c -2.65659,0 -3.76618,1.7147 -3.76618,2.5554 0,0.84069 0.90786,2.82483 3.73259,2.65669 3.22826,-0.0673 3.73259,-2.01762 3.73259,-2.79105 0,-0.77344 -1.04241,-2.42104 -3.699,-2.42104 z m -0.29197,0.63356 c 0.0474,2.6e-4 0.0958,10e-4 0.14521,0.005 1.13018,-0.0161 2.23199,0.54387 2.25309,1.78232 -0.0673,1.44599 -1.31144,2.18591 -2.32027,2.18591 -1.00883,0 -2.08462,-1.17687 -2.08462,-1.91668 0,-0.71669 0.53615,-2.06439 2.00659,-2.0562 z" /></g></g></svg>
